<svg
  viewBox="0 0 147 127"
  fill="none"
  xmlns="http://www.w3.org/2000/svg"
>
  <path
    d="M20 86.6667C14.4444 86.6667 9.72222 84.7222 5.83333 80.8334C1.94444 76.9445 0 72.2222 0 66.6667C0 61.1111 1.94444 56.3889 5.83333 52.5C9.72222 48.6111 14.4444 46.6667 20 46.6667V33.3334C20 29.6667 21.3056 26.5278 23.9167 23.9167C26.5278 21.3056 29.6667 20 33.3333 20H53.3333C53.3333 14.4445 55.2778 9.72224 59.1667 5.83335C63.0556 1.94446 67.7778 1.52588e-05 73.3333 1.52588e-05C78.8889 1.52588e-05 83.6111 1.94446 87.5 5.83335C91.3889 9.72224 93.3333 14.4445 93.3333 20H113.333C117 20 120.139 21.3056 122.75 23.9167C125.361 26.5278 126.667 29.6667 126.667 33.3334V46.6667C132.222 46.6667 136.944 48.6111 140.833 52.5C144.722 56.3889 146.667 61.1111 146.667 66.6667C146.667 72.2222 144.722 76.9445 140.833 80.8334C136.944 84.7222 132.222 86.6667 126.667 86.6667V113.333C126.667 117 125.361 120.139 122.75 122.75C120.139 125.361 117 126.667 113.333 126.667H33.3333C29.6667 126.667 26.5278 125.361 23.9167 122.75C21.3056 120.139 20 117 20 113.333V86.6667ZM53.3333 73.3334C53.3333 73.3334 54.0278 73.3334 55.4167 73.3334C56.8056 73.3334 58.4722 72.3611 60.4167 70.4167C62.3611 68.4722 63.3333 66.1111 63.3333 63.3334C63.3333 60.5556 62.3611 58.1945 60.4167 56.25C58.4722 54.3056 56.1111 53.3334 53.3333 53.3334C50.5556 53.3334 48.1944 54.3056 46.25 56.25C44.3056 58.1945 43.3333 60.5556 43.3333 63.3334C43.3333 66.1111 44.3056 68.4722 46.25 70.4167C48.1944 72.3611 50.5556 73.3334 53.3333 73.3334ZM93.3333 73.3334C93.3333 73.3334 94.0278 73.3334 95.4167 73.3334C96.8056 73.3334 98.4722 72.3611 100.417 70.4167C102.361 68.4722 103.333 66.1111 103.333 63.3334C103.333 60.5556 102.361 58.1945 100.417 56.25C98.4722 54.3056 96.1111 53.3334 93.3333 53.3334C90.5556 53.3334 88.1945 54.3056 86.25 56.25C84.3056 58.1945 83.3333 60.5556 83.3333 63.3334C83.3333 66.1111 84.3056 68.4722 86.25 70.4167C88.1945 72.3611 90.5556 73.3334 93.3333 73.3334ZM46.6667 100H100V86.6667H46.6667V100ZM33.3333 113.333H113.333V33.3334H33.3333V113.333Z"
    fill="blue"
  />
</svg>
