<?xml version="1.0" encoding="UTF-8" standalone="no"?>
<!-- Created with Inkscape (http://www.inkscape.org/) -->

<svg
   width="210mm"
   height="210mm"
   viewBox="0 0 210 210"
   version="1.1"
   color="#0D7FF2"
   id="svg1"
   xml:space="preserve"
   xmlns="http://www.w3.org/2000/svg"
   xmlns:svg="http://www.w3.org/2000/svg"><defs
     id="defs1" /><g
     id="layer1"><g
       id="g21"
       transform="matrix(1.6735893,0,0,1.6895796,-51.431959,-27.363305)"><g
         transform="matrix(0.006219,0,0,-0.00639652,35.456912,123.58837)"
         fill="currentColor"
         stroke="none"
         id="g4"><path
           d="m 8890,12710 c -69,-4 -170,-13 -225,-19 -55,-6 -137,-11 -183,-11 -46,0 -92,-5 -103,-10 -10,-6 -49,-13 -87,-16 -37,-4 -86,-12 -110,-20 -23,-8 -64,-14 -90,-14 -26,0 -69,-7 -96,-15 -27,-8 -70,-15 -94,-15 -25,0 -71,-6 -101,-14 -60,-15 -132,-30 -221,-47 -30,-6 -64,-14 -75,-19 -11,-5 -42,-14 -70,-19 -27,-5 -77,-17 -110,-26 -33,-9 -87,-23 -120,-30 -111,-26 -171,-42 -193,-54 -11,-6 -29,-11 -39,-11 -10,0 -31,-7 -47,-15 -15,-8 -38,-15 -50,-15 -12,0 -30,-6 -41,-14 -11,-7 -33,-16 -50,-19 -32,-5 -198,-61 -252,-84 -17,-7 -39,-13 -50,-13 -10,0 -27,-7 -37,-15 -11,-8 -29,-15 -39,-15 -11,0 -43,-11 -72,-24 -28,-14 -69,-31 -91,-39 -80,-29 -241,-96 -289,-120 -27,-14 -86,-42 -130,-62 -44,-19 -87,-39 -96,-45 -9,-5 -77,-40 -150,-78 -323,-168 -484,-266 -809,-491 -188,-130 -397,-291 -590,-456 -107,-91 -550,-530 -655,-649 -39,-44 -86,-98 -106,-120 -95,-108 -479,-632 -479,-654 0,-6 -3,-12 -7,-14 -5,-1 -15,-15 -23,-30 -8,-15 -48,-82 -89,-150 -41,-68 -90,-152 -109,-188 -18,-36 -42,-78 -53,-95 -10,-16 -21,-37 -25,-45 -3,-8 -9,-22 -14,-31 -34,-65 -63,-124 -90,-184 -38,-83 -63,-108 -97,-92 -29,13 -41,50 -58,188 -17,139 -37,288 -65,474 -12,77 -28,187 -36,245 -9,58 -22,146 -29,195 -7,50 -20,137 -29,195 -8,58 -29,200 -46,315 -17,116 -35,239 -40,275 -5,36 -21,142 -35,235 -14,94 -33,222 -41,285 -8,63 -17,123 -20,132 -3,10 -9,48 -14,85 -4,37 -20,145 -34,238 -14,94 -26,182 -26,197 0,15 -7,45 -16,67 -14,36 -17,38 -42,31 -15,-5 -76,-14 -137,-20 -208,-22 -350,-39 -383,-46 -44,-9 -54,-36 -42,-111 6,-32 10,-101 10,-153 1,-52 5,-115 11,-140 5,-25 13,-121 18,-215 5,-93 14,-222 20,-285 6,-63 16,-185 22,-270 6,-85 17,-234 24,-330 7,-96 18,-256 24,-355 7,-99 16,-212 22,-251 5,-39 14,-149 18,-245 5,-96 12,-181 15,-189 4,-8 11,-94 16,-190 5,-96 14,-220 20,-275 5,-55 11,-182 12,-282 l 3,-181 -35,-50 c -19,-27 -75,-84 -125,-127 -49,-42 -104,-89 -120,-103 -28,-25 -72,-75 -178,-204 -41,-51 -129,-180 -164,-243 -78,-138 -166,-347 -194,-458 -5,-21 -13,-45 -18,-55 -28,-53 -70,-291 -91,-517 -12,-123 -2,-357 21,-505 39,-246 70,-384 107,-473 7,-16 12,-35 12,-42 0,-27 136,-310 185,-384 19,-29 35,-55 35,-58 0,-5 112,-159 143,-196 62,-75 225,-230 297,-282 22,-16 47,-36 55,-42 7,-7 16,-13 19,-13 3,0 24,-13 48,-29 46,-31 144,-87 168,-97 8,-3 47,-18 85,-34 67,-27 231,-79 360,-115 162,-44 178,-61 305,-320 46,-93 96,-190 111,-216 14,-25 38,-65 51,-90 48,-86 53,-94 59,-99 3,-3 12,-16 19,-30 48,-92 347,-520 424,-607 6,-7 16,-18 21,-25 55,-70 99,-122 145,-173 71,-79 505,-512 550,-549 52,-43 154,-130 160,-137 29,-33 379,-288 520,-379 47,-30 90,-59 96,-65 6,-5 27,-19 47,-30 20,-11 37,-23 37,-27 0,-5 5,-8 11,-8 7,0 49,-22 95,-50 46,-27 85,-50 88,-50 3,0 25,-13 49,-30 25,-16 52,-30 60,-30 9,0 18,-4 21,-9 7,-11 460,-236 494,-246 12,-3 22,-11 22,-16 0,-5 8,-9 18,-9 9,-1 35,-9 57,-20 22,-11 46,-19 53,-20 7,0 20,-4 30,-10 38,-21 170,-78 227,-98 33,-12 85,-31 115,-42 30,-12 69,-25 85,-30 31,-8 73,-23 135,-46 19,-7 46,-16 60,-19 14,-3 34,-10 45,-15 11,-5 47,-16 80,-25 33,-10 74,-22 90,-27 17,-6 55,-16 85,-23 30,-8 87,-23 125,-35 39,-11 88,-24 110,-29 54,-12 120,-27 175,-41 25,-6 68,-15 97,-20 28,-4 66,-13 85,-19 73,-23 350,-72 653,-115 364,-52 512,-64 1070,-87 286,-12 1019,-5 1180,11 55,5 172,14 260,20 132,8 549,54 685,75 232,37 488,87 533,104 16,6 42,11 59,11 29,0 60,7 188,45 25,7 74,20 110,29 82,21 147,40 230,65 36,10 76,21 90,24 23,5 138,42 220,72 19,7 60,20 90,30 30,9 69,23 87,31 17,8 38,14 47,14 9,0 44,13 78,29 35,16 76,32 93,36 16,3 52,17 80,29 27,13 79,34 115,46 36,13 74,29 85,37 11,7 26,13 34,13 8,0 39,12 70,26 123,58 480,236 551,275 41,23 89,49 105,58 43,24 114,68 162,102 23,16 45,29 49,29 4,0 41,23 83,52 42,28 99,67 126,85 80,52 79,52 254,182 184,138 238,183 421,346 157,141 437,427 496,506 12,17 40,50 61,72 62,66 283,361 370,492 122,184 182,290 309,535 12,25 38,79 57,120 19,41 47,102 62,134 49,105 122,156 275,191 41,10 87,24 102,31 14,8 37,14 50,14 12,0 32,7 42,15 11,8 29,15 39,15 26,0 274,120 334,161 226,156 404,327 526,505 18,27 47,70 65,95 31,45 132,237 132,251 0,4 11,31 25,60 25,56 51,122 65,173 4,17 13,44 18,60 18,54 33,119 42,184 5,35 14,77 19,95 16,50 36,300 36,446 -1,141 -25,379 -49,490 -8,36 -20,92 -26,125 -6,33 -16,74 -22,90 -5,17 -13,44 -18,60 -32,117 -134,350 -193,442 -15,24 -27,45 -27,49 0,3 -13,23 -30,44 -16,21 -30,41 -30,44 0,7 -31,53 -65,95 -34,43 -225,232 -324,321 -133,120 -141,135 -141,263 0,57 4,128 10,158 5,30 14,135 20,234 5,99 14,232 20,295 6,63 15,165 20,225 6,61 15,184 20,275 6,91 14,187 20,213 5,26 10,94 11,150 0,56 4,136 9,177 5,41 14,151 19,244 6,92 15,200 20,240 6,39 16,150 22,246 6,96 13,204 15,240 3,36 13,169 24,295 30,361 31,372 15,385 -9,7 -27,9 -46,5 -71,-16 -444,-4 -480,15 -10,6 -31,10 -46,10 -28,0 -29,-3 -46,-77 -10,-43 -17,-91 -17,-107 0,-15 -6,-67 -14,-115 -8,-47 -22,-138 -31,-201 -9,-63 -22,-155 -30,-205 -8,-49 -26,-169 -40,-265 -14,-96 -36,-247 -49,-335 -14,-88 -32,-214 -41,-280 -10,-66 -21,-145 -27,-175 -5,-30 -15,-100 -23,-155 -8,-55 -18,-129 -23,-165 -46,-310 -96,-652 -107,-730 -8,-52 -19,-129 -25,-170 -6,-41 -19,-86 -29,-100 -22,-31 -62,-37 -83,-13 -8,10 -57,99 -107,198 -91,179 -101,197 -132,245 -9,14 -31,51 -48,83 -61,113 -285,456 -333,511 -10,11 -30,38 -45,60 -42,63 -112,153 -178,232 -33,40 -70,85 -82,100 -12,16 -34,43 -50,60 -15,17 -68,77 -118,133 -115,130 -367,383 -485,486 -50,44 -114,100 -141,125 -59,54 -49,46 -179,149 -58,45 -112,88 -120,94 -85,68 -314,235 -365,267 -112,71 -169,106 -220,140 -33,21 -94,58 -135,81 -41,23 -77,45 -80,48 -7,8 -44,28 -250,133 -306,157 -452,228 -468,228 -5,0 -30,11 -58,24 -48,23 -102,46 -206,87 -29,11 -62,24 -73,29 -11,5 -51,19 -90,31 -38,12 -74,26 -80,30 -5,3 -26,10 -45,14 -19,4 -41,11 -50,16 -31,16 -331,109 -353,109 -12,1 -33,7 -47,15 -14,8 -40,14 -58,15 -18,0 -45,6 -60,14 -15,7 -49,16 -75,20 -27,3 -54,9 -60,13 -11,8 -38,14 -188,46 -36,8 -71,17 -78,21 -7,5 -36,12 -64,16 -187,30 -241,40 -274,49 -21,6 -57,11 -80,11 -23,0 -54,5 -69,11 -16,5 -64,15 -109,20 -44,6 -84,14 -90,20 -5,5 -34,9 -65,10 -30,0 -80,5 -110,10 -30,5 -120,14 -200,19 -80,5 -161,14 -180,20 -44,14 -969,22 -1150,10 z M 6745,9356 c 99,-13 150,-23 350,-71 61,-14 174,-45 500,-133 356,-97 600,-162 655,-173 25,-5 72,-15 105,-23 420,-102 963,-146 1381,-112 193,15 457,49 526,67 21,5 82,18 135,29 54,11 127,27 163,35 36,9 96,23 133,31 38,8 73,17 79,20 5,3 52,17 104,29 51,13 98,26 103,30 5,3 29,9 53,14 38,8 151,38 523,142 61,16 132,34 159,39 26,5 62,14 80,19 136,44 440,81 661,81 381,0 745,-73 1095,-220 173,-73 439,-220 510,-284 14,-12 50,-38 80,-58 30,-21 89,-65 130,-100 102,-85 368,-354 405,-409 17,-24 35,-48 41,-54 6,-5 22,-26 35,-45 13,-19 32,-44 42,-55 10,-11 30,-40 45,-65 14,-25 29,-47 32,-50 7,-6 96,-156 127,-215 12,-22 30,-56 40,-75 170,-310 309,-781 353,-1200 6,-57 13,-107 15,-110 11,-18 15,-488 6,-640 -19,-314 -82,-708 -146,-920 -15,-47 -31,-105 -36,-130 -10,-49 -67,-219 -79,-235 -4,-5 -17,-39 -30,-75 -39,-109 -256,-558 -286,-591 -8,-8 -14,-18 -14,-22 0,-3 -19,-34 -42,-69 -48,-71 -64,-96 -74,-118 -9,-18 -165,-226 -248,-330 -79,-99 -359,-383 -466,-473 -47,-40 -87,-74 -90,-77 -15,-16 -161,-129 -200,-155 -25,-16 -79,-55 -120,-86 -41,-30 -82,-59 -90,-62 -8,-4 -28,-16 -45,-27 -16,-11 -36,-23 -44,-27 -8,-3 -37,-21 -65,-40 -28,-18 -54,-33 -58,-33 -5,0 -27,-12 -51,-27 -98,-63 -164,-97 -442,-222 -38,-18 -85,-39 -102,-47 -70,-31 -101,-44 -183,-75 -47,-17 -98,-37 -115,-45 -34,-15 -172,-61 -285,-94 -41,-12 -93,-28 -115,-35 -114,-37 -478,-126 -655,-160 -47,-9 -114,-23 -150,-30 -36,-8 -112,-21 -170,-30 -58,-9 -145,-22 -195,-30 -123,-19 -270,-36 -390,-45 -55,-4 -143,-12 -195,-18 -386,-44 -1142,-44 -1620,-1 -63,6 -160,14 -215,19 -55,4 -134,12 -175,18 -79,12 -177,25 -345,47 -99,13 -204,31 -340,59 -38,8 -104,21 -145,29 -95,19 -163,35 -220,53 -25,8 -52,14 -61,14 -9,0 -41,7 -70,16 -30,8 -76,21 -104,29 -50,14 -444,142 -521,169 -22,8 -67,26 -98,40 -32,14 -63,26 -68,26 -5,0 -38,13 -71,29 -34,15 -73,32 -87,36 -23,7 -168,77 -380,185 -47,23 -87,46 -90,50 -3,4 -52,34 -110,65 -91,50 -276,167 -290,184 -3,3 -32,24 -65,46 -102,68 -166,119 -289,230 -6,6 -29,23 -51,40 -77,56 -357,351 -489,515 -147,183 -227,300 -386,570 -24,41 -191,392 -210,440 -11,30 -25,64 -30,75 -22,46 -82,230 -115,350 -7,28 -21,77 -30,110 -55,192 -116,563 -136,830 -19,257 -2,758 31,920 6,28 21,109 35,180 32,171 41,211 76,330 40,132 62,198 70,210 4,6 19,44 32,85 29,89 172,376 235,475 104,161 136,210 142,215 3,3 37,46 75,95 138,180 384,425 528,525 28,20 92,67 141,103 49,37 93,67 99,67 5,0 35,18 67,39 77,53 366,191 460,221 41,12 84,26 95,30 47,18 155,50 220,65 39,9 90,21 115,27 25,5 106,18 180,29 161,21 544,19 725,-5 z"
           id="path1" /><path
           d="m 12384,8029 c -55,-3 -116,-11 -135,-17 -19,-6 -56,-13 -84,-17 -46,-6 -109,-24 -160,-46 -11,-4 -62,-25 -113,-45 -52,-20 -128,-58 -170,-85 -43,-27 -81,-49 -85,-49 -35,0 -293,-233 -382,-345 -22,-27 -46,-56 -53,-64 -7,-8 -21,-26 -30,-40 -9,-14 -28,-42 -43,-61 -39,-51 -152,-282 -182,-370 -58,-175 -87,-351 -87,-530 0,-129 19,-324 40,-400 31,-117 53,-189 66,-217 8,-17 14,-36 14,-42 0,-38 187,-357 244,-417 6,-6 36,-40 66,-75 161,-187 383,-342 630,-441 14,-6 39,-16 55,-23 42,-18 194,-57 295,-75 145,-26 517,-20 615,10 16,5 50,13 75,19 80,17 134,33 165,46 17,8 46,20 65,27 78,29 241,115 324,171 97,65 318,278 397,382 79,104 209,332 209,366 0,5 13,37 29,71 27,60 50,142 72,260 5,29 14,73 19,98 12,61 12,375 0,425 -6,22 -14,72 -20,110 -6,39 -14,81 -19,95 -5,14 -19,59 -31,100 -33,110 -79,229 -109,280 -14,25 -37,66 -49,93 -33,66 -58,65 -67,-5 -12,-93 -63,-253 -101,-317 -111,-187 -275,-279 -540,-306 -154,-15 -342,70 -480,217 -138,147 -177,359 -114,622 23,93 113,216 215,293 51,38 108,65 219,102 79,27 105,42 106,61 0,13 -259,99 -319,106 -25,3 -77,12 -116,19 -82,16 -288,23 -431,14 z"
           id="path2" /><path
           d="m 6020,8020 c -19,-5 -64,-13 -100,-20 -69,-12 -162,-36 -195,-50 -11,-5 -45,-18 -75,-30 -207,-79 -411,-215 -600,-400 -31,-30 -165,-200 -196,-248 -70,-109 -99,-161 -130,-233 -19,-46 -39,-93 -44,-104 -9,-23 -36,-106 -57,-180 -23,-83 -52,-313 -53,-420 -1,-290 113,-669 273,-910 97,-147 118,-172 237,-292 91,-92 111,-109 193,-167 117,-82 134,-92 218,-132 163,-79 194,-91 304,-122 126,-35 167,-43 274,-53 58,-5 119,-12 135,-15 75,-16 406,27 561,73 232,68 486,216 655,382 105,103 230,240 230,252 0,4 20,37 45,73 25,37 45,68 45,70 0,2 16,28 35,57 19,30 35,59 35,65 0,7 14,42 30,79 17,37 30,72 30,78 0,7 6,23 13,37 17,33 62,221 76,320 12,81 12,328 1,380 -6,25 -15,81 -20,125 -10,79 -31,162 -56,220 -7,17 -22,61 -34,100 -12,38 -25,74 -30,80 -4,5 -31,55 -59,109 -77,150 -101,167 -101,75 0,-76 -37,-207 -87,-307 -27,-54 -153,-183 -196,-203 -12,-5 -35,-17 -52,-27 -69,-42 -235,-83 -340,-83 -91,-1 -168,20 -267,73 -153,82 -249,191 -300,343 -30,89 -30,290 0,399 62,222 208,353 492,438 53,15 63,39 24,57 -59,27 -268,91 -298,91 -17,1 -60,7 -96,15 -71,16 -456,19 -520,5 z"
           id="path3" /><path
           d="m 7965,4066 c -67,-13 -93,-28 -127,-71 -22,-28 -23,-37 -22,-180 2,-201 30,-304 146,-530 42,-81 60,-108 157,-237 77,-102 194,-226 263,-278 11,-8 34,-26 52,-40 44,-36 116,-84 151,-102 189,-98 229,-118 237,-118 6,0 24,-6 41,-14 42,-19 153,-50 247,-70 70,-14 280,-33 325,-29 11,1 67,5 125,8 58,4 123,11 145,17 22,5 67,15 101,22 70,15 272,87 300,108 6,4 41,24 79,43 60,32 172,101 185,115 3,3 37,31 77,63 187,149 410,454 488,667 80,219 103,417 63,535 -34,100 -175,127 -393,74 -44,-10 -102,-23 -130,-29 -27,-5 -81,-16 -120,-25 -103,-23 -424,-73 -545,-84 -127,-12 -403,-26 -445,-23 -16,1 -100,7 -185,12 -274,16 -351,26 -630,77 -47,9 -132,27 -190,40 -108,25 -225,47 -295,56 -22,2 -67,-1 -100,-7 z"
           id="path4" /></g><ellipse
         style="opacity:1;fill:#0D7FF2;stroke-width:0.224989"
         id="path5"
         ry="6.7780094"
         rx="7.7462969"
         cy="42.434021"
         cx="45.338875" /><ellipse
         style="fill:#0D7FF2;stroke-width:0.224989"
         id="path5-3"
         ry="6.7780094"
         rx="7.7462969"
         cy="42.734428"
         cx="142.9299" /></g></g></svg>
